<svg width="26" height="25" viewBox="0 0 26 25" fill="none" xmlns="http://www.w3.org/2000/svg">
<path d="M24.25 9.49998C24.2271 8.73464 24.0082 7.98798 23.6143 7.33141C23.2203 6.67485 22.6645 6.13034 22 5.74998C21.8407 4.66116 21.2942 3.66625 20.4608 2.94764C19.6274 2.22904 18.5629 1.8349 17.4625 1.83748C17.0405 1.83675 16.6203 1.89139 16.2125 1.99998C15.3521 1.17855 14.2083 0.720215 13.0188 0.720215C11.8292 0.720215 10.6854 1.17855 9.825 1.99998C9.41723 1.89139 8.99698 1.83675 8.575 1.83748C7.47029 1.82886 6.39977 2.22027 5.56114 2.93941C4.72252 3.65856 4.17244 4.65688 4.0125 5.74998C3.34564 6.12878 2.78733 6.67261 2.39114 7.32928C1.99495 7.98595 1.77417 8.73343 1.75 9.49998C1.41848 9.49998 1.10054 9.63168 0.866116 9.8661C0.631696 10.1005 0.5 10.4185 0.5 10.75C0.500056 12.9441 1.07766 15.0996 2.17476 16.9998C3.27186 18.9 4.84981 20.4779 6.75 21.575V23.25C6.75 23.5815 6.8817 23.8994 7.11612 24.1339C7.35054 24.3683 7.66848 24.5 8 24.5H18C18.3315 24.5 18.6495 24.3683 18.8839 24.1339C19.1183 23.8994 19.25 23.5815 19.25 23.25V21.575C21.1502 20.4779 22.7281 18.9 23.8252 16.9998C24.9223 15.0996 25.4999 12.9441 25.5 10.75C25.5 10.4185 25.3683 10.1005 25.1339 9.8661C24.8995 9.63168 24.5815 9.49998 24.25 9.49998ZM4.25 9.49998C4.28175 9.10506 4.43081 8.72864 4.67804 8.41905C4.92527 8.10945 5.25939 7.88081 5.6375 7.76248L6.675 7.43748L6.475 6.37498C6.47826 6.10577 6.53453 5.83983 6.64057 5.59236C6.74662 5.34489 6.90038 5.12073 7.09306 4.93269C7.28575 4.74465 7.51359 4.5964 7.76357 4.49642C8.01356 4.39644 8.28078 4.34668 8.55 4.34998C8.91099 4.34792 9.26707 4.43372 9.5875 4.59998L10.6 5.16248L11.225 4.19998C11.4205 3.90865 11.6846 3.66991 11.9942 3.50483C12.3037 3.33975 12.6492 3.2534 13 3.2534C13.3508 3.2534 13.6963 3.33975 14.0058 3.50483C14.3154 3.66991 14.5795 3.90865 14.775 4.19998L15.4 5.16248L16.4125 4.59998C16.7329 4.43372 17.089 4.34792 17.45 4.34998C17.9907 4.34318 18.5124 4.54897 18.9028 4.92303C19.2932 5.2971 19.5212 5.80952 19.5375 6.34998L19.3375 7.41248L20.3625 7.76248C20.7406 7.88081 21.0747 8.10945 21.322 8.41905C21.5692 8.72864 21.7182 9.10506 21.75 9.49998H4.25Z" fill="#3A95D6"/>
</svg>
